<svg xmlns="http://www.w3.org/2000/svg" version="1.1" xmlns:xlink="http://www.w3.org/1999/xlink" xmlns:svgjs="http://svgjs.dev/svgjs" width="296" height="116.8"><g><svg viewBox="0 0 395.5199999999999 119.33111487005996" height="119.33111487005996" width="296" xmlns="http://www.w3.org/2000/svg" version="1.1" xmlns:xlink="http://www.w3.org/1999/xlink" xmlns:svgjs="http://svgjs.com/svgjs" x="0" y="-1.265557435029983"><g><svg viewBox="0 0 395.5199999999999 119.33111487005996" height="119.33111487005996" width="395.5199999999999"><g><svg viewBox="0 0 395.5199999999999 119.33111487005996" height="119.33111487005996" width="395.5199999999999"><g><svg viewBox="0 0 395.5199999999999 119.33111487005996" height="119.33111487005996" width="395.5199999999999"><g><svg viewBox="0 0 395.5199999999999 119.33111487005996" height="119.33111487005996" width="395.5199999999999"><g transform="matrix(1,0,0,1,0,0)"><svg width="395.5199999999999" viewBox="2 -37.5 158.75 47.9" height="119.33111487005996" data-palette-color="#29beb0"><path d="M2-13.4L2-13.4Q2-19.56 4.9-23.23 7.79-26.9 12.57-26.9L12.57-26.9Q17.09-26.9 19.68-23.75L19.68-23.75 19.95-26.42 25.29-26.42 25.29-0.81Q25.29 4.39 22.06 7.4 18.82 10.4 13.33 10.4L13.33 10.4Q10.42 10.4 7.65 9.19 4.88 7.98 3.44 6.03L3.44 6.03 6.25 2.47Q8.98 5.71 12.99 5.71L12.99 5.71Q15.94 5.71 17.65 4.11 19.36 2.51 19.36-0.59L19.36-0.59 19.36-2.37Q16.8 0.49 12.52 0.49L12.52 0.49Q7.89 0.49 4.94-3.2 2-6.88 2-13.4ZM7.91-12.89L7.91-12.89Q7.91-8.91 9.53-6.63 11.16-4.35 14.04-4.35L14.04-4.35Q17.63-4.35 19.36-7.42L19.36-7.42 19.36-19.04Q17.68-22.05 14.09-22.05L14.09-22.05Q11.16-22.05 9.53-19.73 7.91-17.41 7.91-12.89ZM42.23-4.25L42.23-4.25Q44.46-4.25 45.92-5.54 47.39-6.84 47.48-8.74L47.48-8.74 53.07-8.74Q52.98-6.27 51.54-4.14 50.1-2 47.63-0.76 45.16 0.49 42.31 0.49L42.31 0.49Q36.77 0.49 33.52-3.1 30.27-6.69 30.27-13.01L30.27-13.01 30.27-13.62Q30.27-19.65 33.49-23.28 36.72-26.9 42.28-26.9L42.28-26.9Q46.99-26.9 49.96-24.16 52.93-21.41 53.07-16.94L53.07-16.94 47.48-16.94Q47.39-19.21 45.93-20.68 44.48-22.14 42.23-22.14L42.23-22.14Q39.35-22.14 37.79-20.06 36.23-17.97 36.2-13.72L36.2-13.72 36.2-12.77Q36.2-8.47 37.75-6.36 39.3-4.25 42.23-4.25ZM79.39 0L73.33 0Q72.94-0.76 72.65-2.47L72.65-2.47Q69.82 0.49 65.72 0.49L65.72 0.49Q61.74 0.49 59.22-1.78 56.71-4.05 56.71-7.4L56.71-7.4Q56.71-11.62 59.85-13.88 62.98-16.14 68.82-16.14L68.82-16.14 72.46-16.14 72.46-17.87Q72.46-19.92 71.31-21.15 70.16-22.39 67.82-22.39L67.82-22.39Q65.79-22.39 64.5-21.37 63.2-20.36 63.2-18.8L63.2-18.8 57.27-18.8Q57.27-20.97 58.71-22.86 60.15-24.76 62.63-25.83 65.11-26.9 68.16-26.9L68.16-26.9Q72.8-26.9 75.56-24.57 78.32-22.24 78.39-18.02L78.39-18.02 78.39-6.1Q78.39-2.54 79.39-0.42L79.39-0.42 79.39 0ZM66.82-4.27L66.82-4.27Q68.57-4.27 70.12-5.13 71.67-5.98 72.46-7.42L72.46-7.42 72.46-12.4 69.26-12.4Q65.96-12.4 64.3-11.25 62.64-10.11 62.64-8.01L62.64-8.01Q62.64-6.3 63.78-5.29 64.91-4.27 66.82-4.27ZM95.45-4.25L95.45-4.25Q97.67-4.25 99.14-5.54 100.6-6.84 100.7-8.74L100.7-8.74 106.29-8.74Q106.19-6.27 104.75-4.14 103.31-2 100.85-0.76 98.38 0.49 95.52 0.49L95.52 0.49Q89.98 0.49 86.74-3.1 83.49-6.69 83.49-13.01L83.49-13.01 83.49-13.62Q83.49-19.65 86.71-23.28 89.93-26.9 95.5-26.9L95.5-26.9Q100.21-26.9 103.18-24.16 106.14-21.41 106.29-16.94L106.29-16.94 100.7-16.94Q100.6-19.21 99.15-20.68 97.7-22.14 95.45-22.14L95.45-22.14Q92.57-22.14 91.01-20.06 89.45-17.97 89.42-13.72L89.42-13.72 89.42-12.77Q89.42-8.47 90.97-6.36 92.52-4.25 95.45-4.25ZM116.62-37.5L116.62-23.54Q119.52-26.9 123.96-26.9L123.96-26.9Q132.41-26.9 132.53-17.26L132.53-17.26 132.53 0 126.6 0 126.6-17.04Q126.6-19.78 125.42-20.91 124.23-22.05 121.94-22.05L121.94-22.05Q118.37-22.05 116.62-18.87L116.62-18.87 116.62 0 110.68 0 110.68-37.5 116.62-37.5ZM150.16 0.49L150.16 0.49Q144.52 0.49 141.02-3.06 137.51-6.62 137.51-12.52L137.51-12.52 137.51-13.26Q137.51-17.21 139.04-20.32 140.56-23.44 143.32-25.17 146.08-26.9 149.47-26.9L149.47-26.9Q154.87-26.9 157.81-23.46 160.75-20.02 160.75-13.72L160.75-13.72 160.75-11.33 143.49-11.33Q143.76-8.06 145.68-6.15 147.59-4.25 150.5-4.25L150.5-4.25Q154.58-4.25 157.14-7.54L157.14-7.54 160.34-4.49Q158.75-2.12 156.1-0.82 153.45 0.49 150.16 0.49ZM149.45-22.14L149.45-22.14Q147.01-22.14 145.51-20.43 144.01-18.73 143.59-15.67L143.59-15.67 154.89-15.67 154.89-16.11Q154.7-19.09 153.31-20.62 151.92-22.14 149.45-22.14Z" opacity="1" transform="matrix(1,0,0,1,0,0)" fill="#29beb0" class="undefined-text-0" data-fill-palette-color="primary" id="text-0"></path></svg></g></svg></g></svg></g></svg></g></svg></g></svg></g></svg>